<svg version="1.1" id="Layer_1" xmlns="http://www.w3.org/2000/svg" xmlns:xlink="http://www.w3.org/1999/xlink" x="0px" y="0px"
	 width="100%" viewBox="0 0 400 400" enable-background="new 0 0 400 400" xml:space="preserve">
<path fill="#000000" opacity="1.000000" stroke="none" 
	d="
M226.000000,401.000000 
	C151.041809,401.000000 76.083633,401.000000 1.062723,401.000000 
	C1.062723,267.782837 1.062723,134.565659 1.062723,1.000000 
	C54.020386,1.000000 107.041534,1.000000 160.524689,1.353207 
	C154.784775,5.509014 154.121719,11.341450 154.150635,18.016888 
	C154.343246,62.484100 154.170456,106.952812 154.319412,151.420364 
	C154.348511,160.108154 155.266205,168.792984 155.789307,177.740311 
	C152.599091,179.071167 147.930130,180.459015 143.820007,182.819824 
	C101.379158,207.197342 59.055843,231.779480 16.616047,256.158844 
	C11.674249,258.997620 8.972242,262.241119 9.074103,268.353394 
	C9.170700,274.149872 12.434761,276.600952 16.744076,278.835815 
	C19.105892,280.060699 21.365147,281.483246 23.671368,282.815430 
	C89.837646,321.036163 156.007660,359.250427 222.146591,397.518402 
	C223.611984,398.366272 224.723434,399.825806 226.000000,401.000000 
z"/>
<path fill="#000000" opacity="1.000000" stroke="none" 
	d="
M171.000000,1.000001 
	C247.624084,1.000000 324.248169,1.000000 400.936127,1.000000 
	C400.936127,134.216675 400.936127,267.433380 400.936127,401.000000 
	C348.646301,401.000000 296.291809,401.000000 243.472397,400.648865 
	C251.185074,395.258148 259.252380,390.028381 267.559357,385.211945 
	C303.300903,364.488739 339.094879,343.855560 374.920776,323.278534 
	C379.659760,320.556641 382.862488,317.282257 381.988739,311.360626 
	C381.543823,308.345276 382.695312,306.142639 385.680511,305.126495 
	C391.457184,303.160126 392.716553,298.486725 392.719330,293.191193 
	C392.745392,243.691818 392.813629,194.192200 392.662415,144.693283 
	C392.632965,135.047150 388.342651,127.795120 379.554932,122.745163 
	C311.089752,83.400963 242.751343,43.836105 174.404343,4.286577 
	C173.079315,3.519832 172.126480,2.109864 171.000000,1.000001 
z"/>
<path fill="#1A4040" opacity="1.000000" stroke="none" 
	d="
M170.545898,1.000001 
	C172.126480,2.109864 173.079315,3.519832 174.404343,4.286577 
	C242.751343,43.836105 311.089752,83.400963 379.554932,122.745163 
	C388.342651,127.795120 392.632965,135.047150 392.662415,144.693283 
	C392.813629,194.192200 392.745392,243.691818 392.719330,293.191193 
	C392.716553,298.486725 391.457184,303.160126 385.680511,305.126495 
	C382.695312,306.142639 381.543823,308.345276 381.988739,311.360626 
	C382.862488,317.282257 379.659760,320.556641 374.920776,323.278534 
	C339.094879,343.855560 303.300903,364.488739 267.559357,385.211945 
	C259.252380,390.028381 251.185074,395.258148 243.003738,400.648865 
	C237.645065,401.000000 232.290146,401.000000 226.467606,401.000000 
	C224.723434,399.825806 223.611984,398.366272 222.146591,397.518402 
	C156.007660,359.250427 89.837646,321.036163 23.671368,282.815430 
	C21.365147,281.483246 19.105892,280.060699 16.744076,278.835815 
	C12.434761,276.600952 9.170700,274.149872 9.074103,268.353394 
	C8.972242,262.241119 11.674249,258.997620 16.616047,256.158844 
	C59.055843,231.779480 101.379158,207.197342 143.820007,182.819824 
	C147.930130,180.459015 152.599091,179.071167 155.789307,177.740311 
	C155.266205,168.792984 154.348511,160.108154 154.319412,151.420364 
	C154.170456,106.952812 154.343246,62.484100 154.150635,18.016888 
	C154.121719,11.341450 154.784775,5.509014 160.993347,1.353207 
	C164.030594,1.000000 167.061188,1.000000 170.545898,1.000001 
M379.000031,311.285706 
	C378.988708,310.833954 378.977386,310.382233 379.207306,309.304871 
	C378.798065,308.349274 378.660583,306.926788 377.939453,306.507111 
	C363.700958,298.220428 349.361206,290.107605 335.128632,281.810883 
	C332.007263,279.991302 329.277313,279.238800 325.436462,280.015594 
	C322.224518,280.665161 318.042542,279.754669 315.115936,278.086334 
	C279.112518,257.562103 243.275681,236.745819 207.350204,216.084274 
	C203.298676,213.754150 200.528351,211.429199 205.151199,206.862137 
	C191.873077,199.186462 178.725967,192.294617 166.376373,184.187836 
	C158.700912,179.149323 152.343903,180.123016 145.158920,184.288971 
	C102.972740,208.749039 60.720951,233.095947 18.492563,257.483246 
	C10.831326,261.907654 10.834051,261.912384 14.408510,268.260498 
	C13.441221,268.659393 11.743963,268.907257 11.625070,269.481720 
	C10.851155,273.221069 13.654805,274.598053 16.332895,276.144287 
	C84.772926,315.659912 153.253845,355.105591 221.546204,394.875000 
	C230.578720,400.134979 238.409515,400.000732 247.186844,394.827698 
	C271.982544,380.213959 296.978455,365.939911 321.899323,351.538605 
	C339.617767,341.299408 357.347687,331.080048 375.059845,320.829926 
	C378.483673,318.848511 381.617065,316.663055 379.000031,311.285706 
M185.278214,182.236496 
	C248.974350,219.125336 312.670502,256.014160 376.941833,293.236115 
	C377.039246,291.317596 377.139893,290.218750 377.143860,289.119568 
	C377.179504,279.321472 377.212921,269.523285 377.218536,259.725128 
	C377.229736,240.110321 377.226074,220.495514 377.222687,200.880707 
	C377.219482,182.441956 377.125885,164.002502 377.277435,145.565063 
	C377.304871,142.224701 376.580261,140.193909 373.445587,138.433960 
	C357.372070,129.409485 341.464813,120.089104 325.491241,110.886368 
	C278.521057,83.825775 231.536942,56.789318 184.585800,29.695711 
	C177.911224,25.844090 171.389450,21.727642 164.503555,17.556007 
	C164.221344,18.795048 164.028748,19.246233 164.028549,19.697500 
	C164.007782,68.842766 163.974930,117.988106 164.117676,167.132935 
	C164.122116,168.660233 165.605087,170.734146 166.993683,171.610336 
	C172.745605,175.239700 178.726471,178.506210 185.278214,182.236496 
M195.006866,18.493019 
	C186.938141,13.833374 178.943512,9.036607 170.749847,4.608134 
	C168.636749,3.466065 165.898102,3.481447 163.446808,2.965129 
	C163.296265,3.515682 163.145721,4.066235 162.995193,4.616788 
	C164.228394,5.403093 165.433731,6.237634 166.698807,6.968805 
	C235.402390,46.677155 304.064148,86.458427 372.876190,125.977989 
	C381.859985,131.137482 385.844971,138.139145 385.807312,148.276901 
	C385.672333,184.592331 385.754608,220.908585 385.754730,257.224518 
	C385.754761,272.361816 385.754761,287.499084 385.754761,302.715118 
	C389.650085,301.744354 390.175171,298.641541 390.177185,295.121338 
	C390.205841,244.813400 390.249420,194.505478 390.303467,144.197540 
	C390.312866,135.454147 386.712341,129.151398 378.923737,124.673096 
	C317.767578,89.509338 256.713562,54.167938 195.006866,18.493019 
z"/>
<path fill="#93DCDD" opacity="1.000000" stroke="none" 
	d="
M184.950745,182.071228 
	C178.726471,178.506210 172.745605,175.239700 166.993683,171.610336 
	C165.605087,170.734146 164.122116,168.660233 164.117676,167.132935 
	C163.974930,117.988106 164.007782,68.842766 164.028549,19.697500 
	C164.028748,19.246233 164.221344,18.795048 164.503555,17.556007 
	C171.389450,21.727642 177.911224,25.844090 184.585800,29.695711 
	C231.536942,56.789318 278.521057,83.825775 325.491241,110.886368 
	C341.464813,120.089104 357.372070,129.409485 373.445587,138.433960 
	C376.580261,140.193909 377.304871,142.224701 377.277435,145.565063 
	C377.125885,164.002502 377.219482,182.441956 377.222687,200.880707 
	C377.226074,220.495514 377.229736,240.110321 377.218536,259.725128 
	C377.212921,269.523285 377.179504,279.321472 377.143860,289.119568 
	C377.139893,290.218750 377.039246,291.317596 376.941833,293.236115 
	C312.670502,256.014160 248.974350,219.125336 184.950745,182.071228 
z"/>
<path fill="#F4B2A6" opacity="1.000000" stroke="none" 
	d="
M15.065917,268.063416 
	C10.834051,261.912384 10.831326,261.907654 18.492563,257.483246 
	C60.720951,233.095947 102.972740,208.749039 145.158920,184.288971 
	C152.343903,180.123016 158.700912,179.149323 166.376373,184.187836 
	C178.725967,192.294617 191.873077,199.186462 205.151199,206.862137 
	C200.528351,211.429199 203.298676,213.754150 207.350204,216.084274 
	C243.275681,236.745819 279.112518,257.562103 315.115936,278.086334 
	C318.042542,279.754669 322.224518,280.665161 325.436462,280.015594 
	C329.277313,279.238800 332.007263,279.991302 335.128632,281.810883 
	C349.361206,290.107605 363.700958,298.220428 377.939453,306.507111 
	C378.660583,306.926788 378.798065,308.349274 378.773499,309.761536 
	C377.671539,310.711029 377.043762,311.273743 376.329437,311.686707 
	C332.275970,337.154938 288.221802,362.622040 244.148636,388.056183 
	C237.538483,391.870880 231.099564,391.696167 224.348343,387.774597 
	C177.615036,360.628387 130.802765,333.618011 83.991089,306.606873 
	C61.677418,293.731567 39.309521,280.950165 16.623430,267.894409 
	C15.845415,267.759399 15.410162,267.856171 14.982740,267.992859 
	C14.990572,268.032776 15.065917,268.063416 15.065917,268.063416 
M91.374107,226.352325 
	C86.661789,228.985519 81.949478,231.618713 76.392242,234.724030 
	C81.560532,237.467697 85.895370,239.768921 90.849182,242.626114 
	C91.578857,243.020264 92.308525,243.414398 93.409424,244.234818 
	C97.523895,246.534790 101.638367,248.834747 106.167473,251.550629 
	C106.895218,251.807632 107.622971,252.064651 108.738487,252.911758 
	C112.849640,255.272644 116.960793,257.633514 121.480156,260.416077 
	C122.172806,260.771271 122.865448,261.126495 124.058517,261.927185 
	C128.915817,264.648743 133.773117,267.370270 139.142700,270.592957 
	C139.773605,270.929413 140.404526,271.265900 141.511902,271.968475 
	C163.050934,284.400787 184.589981,296.833130 206.476715,309.634888 
	C207.449509,310.286957 208.422302,310.939056 210.145279,311.915863 
	C214.670700,314.429688 219.196106,316.943512 224.165787,319.842804 
	C225.034561,320.280609 225.903336,320.718384 227.190521,321.699890 
	C231.131714,323.894257 235.072891,326.088654 239.448853,328.690643 
	C240.327744,329.147949 241.206635,329.605286 242.485138,330.596832 
	C246.529907,332.813751 250.574692,335.030670 255.015808,337.670898 
	C255.864059,338.113586 256.712311,338.556274 258.063782,339.520477 
	C262.030334,341.715302 265.996887,343.910156 270.390015,346.539398 
	C271.120239,346.885193 271.850494,347.230957 273.092743,347.970062 
	C276.500244,349.997986 280.032471,351.847534 283.273224,354.113892 
	C285.596191,355.738495 287.341187,355.253510 289.525787,353.954376 
	C297.056488,349.475983 304.708374,345.201721 312.259064,340.756195 
	C313.355469,340.110657 314.151489,338.954956 315.021698,338.019379 
	C315.021698,338.019379 315.053894,338.077881 315.639587,338.623657 
	C329.411072,330.684387 343.182556,322.745087 357.610992,314.650299 
	C358.461578,313.979187 359.312164,313.308044 360.364838,312.477478 
	C358.719574,311.477692 357.458466,310.677490 356.166260,309.931061 
	C313.404755,285.229034 270.651794,260.512054 227.871536,235.842484 
	C204.260101,222.226746 180.602051,208.691803 156.420746,194.683090 
	C154.048340,193.646652 152.306824,190.916992 148.942932,192.977097 
	C140.395096,198.211884 131.662094,203.144348 122.339211,208.341522 
	C119.024643,210.245346 115.641724,212.041595 112.418694,214.089478 
	C110.137115,215.539154 108.071831,217.329269 105.974205,218.977524 
	C105.974205,218.977524 105.949158,218.917557 105.400703,218.309448 
	C100.904404,221.195435 96.408096,224.081406 91.975616,226.977203 
	C91.975616,226.977203 91.953384,226.916580 91.374107,226.352325 
M158.761520,287.747437 
	C154.732498,285.416565 150.608582,283.231750 146.710846,280.698822 
	C144.453934,279.232178 142.775238,279.237030 140.441849,280.662354 
	C133.209396,285.080139 125.788536,289.189087 118.449883,293.433624 
	C111.738831,297.315186 105.039635,301.217255 97.894020,305.366455 
	C120.084755,318.179535 141.959641,330.185181 163.112411,343.351013 
	C170.885651,348.189240 176.407791,348.139069 183.835220,343.204254 
	C195.006119,335.782227 206.981674,329.571320 219.066116,322.584747 
	C198.826889,310.876587 179.120972,299.476929 158.761520,287.747437 
z"/>
<path fill="#E7A7BC" opacity="1.000000" stroke="none" 
	d="
M378.993256,311.963531 
	C381.617065,316.663055 378.483673,318.848511 375.059845,320.829926 
	C357.347687,331.080048 339.617767,341.299408 321.899323,351.538605 
	C296.978455,365.939911 271.982544,380.213959 247.186844,394.827698 
	C238.409515,400.000732 230.578720,400.134979 221.546204,394.875000 
	C153.253845,355.105591 84.772926,315.659912 16.332895,276.144287 
	C13.654805,274.598053 10.851155,273.221069 11.625070,269.481720 
	C11.743963,268.907257 13.441221,268.659393 14.737213,268.161957 
	C15.065917,268.063416 14.990572,268.032776 14.909219,268.285583 
	C15.179025,268.715057 15.530184,268.891754 16.091251,269.339783 
	C84.831573,309.236237 153.416183,348.768250 221.826996,388.598816 
	C230.846924,393.850433 238.727219,393.578949 247.500397,388.467285 
	C289.747620,363.852112 332.131256,339.471100 374.455597,314.988190 
	C376.025909,314.079834 377.483276,312.976166 378.993256,311.963531 
z"/>
<path fill="#E8A7BC" opacity="1.000000" stroke="none" 
	d="
M195.317474,18.687157 
	C256.713562,54.167938 317.767578,89.509338 378.923737,124.673096 
	C386.712341,129.151398 390.312866,135.454147 390.303467,144.197540 
	C390.249420,194.505478 390.205841,244.813400 390.177185,295.121338 
	C390.175171,298.641541 389.650085,301.744354 385.754761,302.715118 
	C385.754761,287.499084 385.754761,272.361816 385.754730,257.224518 
	C385.754608,220.908585 385.672333,184.592331 385.807312,148.276901 
	C385.844971,138.139145 381.859985,131.137482 372.876190,125.977989 
	C304.064148,86.458427 235.402390,46.677155 166.698807,6.968805 
	C165.433731,6.237634 164.228394,5.403093 162.995193,4.616788 
	C163.145721,4.066235 163.296265,3.515682 163.446808,2.965129 
	C165.898102,3.481447 168.636749,3.466065 170.749847,4.608134 
	C178.943512,9.036607 186.938141,13.833374 195.317474,18.687157 
z"/>
<path fill="#364D4E" opacity="1.000000" stroke="none" 
	d="
M378.996643,311.624634 
	C377.483276,312.976166 376.025909,314.079834 374.455597,314.988190 
	C332.131256,339.471100 289.747620,363.852112 247.500397,388.467285 
	C238.727219,393.578949 230.846924,393.850433 221.826996,388.598816 
	C153.416183,348.768250 84.831573,309.236237 16.281160,269.192993 
	C16.522364,268.587067 16.757374,268.370880 16.966190,268.126221 
	C39.309521,280.950165 61.677418,293.731567 83.991089,306.606873 
	C130.802765,333.618011 177.615036,360.628387 224.348343,387.774597 
	C231.099564,391.696167 237.538483,391.870880 244.148636,388.056183 
	C288.221802,362.622040 332.275970,337.154938 376.329437,311.686707 
	C377.043762,311.273743 377.671539,310.711029 378.652893,310.074341 
	C378.977386,310.382233 378.988708,310.833954 378.996643,311.624634 
z"/>
<path fill="#8CD2D3" opacity="1.000000" stroke="none" 
	d="
M123.558105,261.481689 
	C122.865448,261.126495 122.172806,260.771271 121.514130,259.969421 
	C125.121605,257.366455 128.695099,255.210190 132.126694,253.139557 
	C125.096458,246.117172 118.081230,244.508606 110.556534,251.201721 
	C109.960655,251.731750 109.092400,251.955566 108.350716,252.321671 
	C107.622971,252.064651 106.895218,251.807632 106.229141,251.096603 
	C109.790192,248.544998 113.289566,246.447418 116.935501,244.261993 
	C106.512001,236.003403 106.327522,235.983261 95.998039,241.973328 
	C94.994232,242.555435 94.024010,243.195435 93.038200,243.808548 
	C92.308525,243.414398 91.578857,243.020264 90.839752,242.085968 
	C94.300446,239.474686 97.770584,237.403534 101.921036,234.926331 
	C98.761772,233.043716 96.184036,231.695541 93.842628,230.017578 
	C92.937149,229.368683 92.567268,227.972382 91.953384,226.916580 
	C91.953384,226.916580 91.975616,226.977203 92.337837,227.072845 
	C96.690300,228.896561 100.655190,230.687225 104.684486,232.318863 
	C106.099411,232.891830 107.967514,233.780228 109.116478,233.299759 
	C112.253181,231.987991 115.116966,230.023636 118.695564,227.969513 
	C116.383057,226.544525 114.672646,225.632874 113.121887,224.502258 
	C110.674629,222.717987 108.334579,220.786652 105.949158,218.917557 
	C105.949158,218.917557 105.974205,218.977524 106.306229,219.065948 
	C108.455666,219.231033 110.575050,218.727066 112.036942,219.487335 
	C117.620064,222.390900 122.942505,225.791901 128.478836,228.792084 
	C129.748276,229.480011 131.745605,229.929810 132.949265,229.415573 
	C135.917038,228.147675 138.618500,226.256393 142.165924,224.184082 
	C134.720734,219.818451 127.941544,215.843353 120.833244,211.675278 
	C121.783585,210.854965 122.391312,210.330383 123.384079,209.785126 
	C128.585861,212.304810 133.367935,214.914993 138.244202,217.335373 
	C139.433075,217.925476 141.210022,218.501419 142.235138,218.032166 
	C145.361053,216.601227 148.252060,214.657166 151.754013,212.608948 
	C146.120590,209.299957 141.061646,206.328415 136.002686,203.356873 
	C136.255051,202.701965 136.507401,202.047073 136.759750,201.392181 
	C138.764786,201.967346 140.988602,202.162445 142.743256,203.172546 
	C208.616562,241.094269 274.447113,279.090302 340.279236,317.083557 
	C341.613068,317.853333 342.897339,318.709015 344.204712,319.524628 
	C343.969025,320.126007 343.733337,320.727356 343.497650,321.328705 
	C341.606049,320.803619 339.661774,320.416901 337.834991,319.721497 
	C334.978271,318.634094 331.975464,316.019531 329.445465,316.452606 
	C326.029388,317.037384 323.002777,319.897461 319.348907,322.052612 
	C323.266083,324.420288 326.422272,326.328033 329.578461,328.235748 
	C329.397369,328.775208 329.216278,329.314667 329.035156,329.854126 
	C327.319824,329.572754 325.413666,329.674652 323.926697,328.934509 
	C320.210999,327.085022 316.307556,325.306458 313.161591,322.681793 
	C306.356445,317.004211 300.137817,317.720123 293.852631,323.221558 
	C293.740662,323.319550 293.660675,323.454102 293.252411,323.959564 
	C299.326447,327.475311 305.384613,330.887024 311.326935,334.489777 
	C312.765533,335.362030 313.821808,336.864960 315.053894,338.077881 
	C315.053894,338.077881 315.021698,338.019379 314.695862,337.910034 
	C312.408539,337.648560 310.121796,338.098022 308.540314,337.243073 
	C300.508942,332.900970 292.688843,328.169891 284.718994,323.710388 
	C283.430908,322.989624 281.459595,322.244476 280.326996,322.730103 
	C277.202484,324.069794 274.355133,326.055817 270.754089,328.163177 
	C280.962158,334.117950 290.455536,339.655823 299.948883,345.193665 
	C299.769287,345.735565 299.589691,346.277466 299.410095,346.819366 
	C297.586121,346.451233 295.245697,346.677307 294.024384,345.615753 
	C287.475983,339.924225 281.325897,340.853668 275.114319,345.999146 
	C274.355133,346.628021 273.429291,347.055756 272.580688,347.576721 
	C271.850494,347.230957 271.120239,346.885193 270.454895,346.113464 
	C274.102264,343.525970 277.684753,341.364349 281.792267,338.885986 
	C277.902710,336.613037 274.850891,334.647583 271.620209,333.041992 
	C270.511047,332.490784 268.685211,332.326965 267.651794,332.870392 
	C264.175171,334.698608 260.907898,336.924957 257.560547,338.998962 
	C256.712311,338.556274 255.864059,338.113586 255.120056,337.232422 
	C258.737579,334.707336 262.250854,332.620697 265.832977,330.493164 
	C257.051849,322.535461 255.009613,322.253937 245.805511,327.645599 
	C244.530930,328.392212 243.323853,329.254059 242.085510,330.062561 
	C241.206635,329.605286 240.327744,329.147949 239.548645,328.328308 
	C243.290146,325.837128 246.931839,323.708313 250.680145,321.517181 
	C240.509277,313.189270 239.949158,313.127930 229.617523,319.213867 
	C228.630280,319.795441 227.718796,320.505646 226.772125,321.156158 
	C225.903336,320.718384 225.034561,320.280609 224.262390,319.436462 
	C227.976105,316.903534 231.593201,314.776978 235.376404,312.552734 
	C223.220230,303.171051 217.766464,303.039581 209.395096,311.591125 
	C208.422302,310.939056 207.449509,310.286957 206.611771,309.296509 
	C210.393814,306.825867 214.040817,304.693604 218.181854,302.272461 
	C216.201691,301.041107 214.838898,300.139465 213.426544,299.323700 
	C197.591675,290.177490 181.328949,281.684662 166.067276,271.666382 
	C156.998505,265.713348 149.419586,264.129608 141.035431,271.602356 
	C140.404526,271.265900 139.773605,270.929413 139.150757,270.082062 
	C142.643723,267.480652 146.128632,265.390137 149.779526,263.200012 
	C137.896469,253.745438 137.167419,253.676086 125.301758,260.522400 
	C124.727287,260.853851 124.139626,261.162445 123.558105,261.481689 
M238.164978,275.322571 
	C245.020309,280.901978 248.473877,273.206268 253.989120,271.808075 
	C243.263199,264.022156 241.892517,264.025421 231.949371,271.670044 
	C233.879868,272.818207 235.702759,273.902344 238.164978,275.322571 
M308.491791,316.079315 
	C316.499268,320.684753 319.076111,320.293579 326.163696,313.396484 
	C315.428894,306.221436 315.037842,306.224884 305.028534,313.730774 
	C306.009705,314.434204 306.930176,315.094116 308.491791,316.079315 
M243.159332,312.584167 
	C254.104706,318.885498 255.116119,318.824463 263.384735,311.363647 
	C252.955978,304.367340 248.224136,304.537048 243.159332,312.584167 
M142.916946,241.509445 
	C136.028961,235.264359 131.472626,241.600662 126.062889,244.412201 
	C136.021210,251.996933 137.594315,251.997375 147.723114,244.424973 
	C146.260559,243.543350 144.887863,242.715897 142.916946,241.509445 
M250.935577,298.149048 
	C250.803055,298.575256 250.424835,299.240753 250.573334,299.393219 
	C257.079681,306.073334 264.571442,305.778748 270.851410,298.800232 
	C264.770538,292.386139 258.299561,291.780640 250.935577,298.149048 
M240.321716,284.049652 
	C241.094604,283.543762 241.867477,283.037872 242.711899,282.485168 
	C233.124435,274.954834 228.640305,275.036224 221.605362,282.693237 
	C231.581497,289.131714 231.581497,289.131714 240.321716,284.049652 
M231.213654,300.710724 
	C230.038620,301.488983 228.863586,302.267273 227.517700,303.158722 
	C238.395966,310.609955 240.167450,310.572479 248.860443,302.827362 
	C243.406036,299.803558 238.613281,293.969849 231.213654,300.710724 
M288.698486,291.382324 
	C282.950806,289.600281 280.384277,295.000763 275.594543,296.385864 
	C285.887573,304.155151 289.574066,304.073914 297.088165,296.281158 
	C294.480347,294.776642 291.915802,293.297089 288.698486,291.382324 
M235.744583,290.482971 
	C244.612000,297.964691 247.825958,297.979187 256.838776,290.578125 
	C247.261337,283.390869 247.260773,283.389923 237.441528,289.180969 
	C237.012497,289.433990 236.611389,289.734436 235.744583,290.482971 
M272.996521,294.264374 
	C276.241852,292.393066 279.487183,290.521729 282.843536,288.586395 
	C273.142029,280.976440 269.013336,281.036896 261.312683,288.934601 
	C265.055115,290.840393 268.704681,292.698914 272.996521,294.264374 
M170.327026,235.541931 
	C173.772751,233.602280 177.218475,231.662628 180.741241,229.679611 
	C171.666611,222.024811 167.528976,222.037201 159.208176,229.753326 
	C162.726105,231.720612 166.175949,233.649826 170.327026,235.541931 
M192.532272,283.209198 
	C198.462997,285.592041 200.902313,279.722961 205.780212,278.480713 
	C195.952774,270.713989 193.257080,270.734558 184.171112,278.376495 
	C186.815628,279.925201 189.335083,281.400665 192.532272,283.209198 
M122.503937,242.392212 
	C126.028404,240.455826 129.552872,238.519440 133.342407,236.437424 
	C123.067757,228.794174 120.376854,228.837723 111.782692,236.568893 
	C115.180267,238.476471 118.467178,240.321915 122.503937,242.392212 
M192.574493,235.872452 
	C183.544205,230.640411 181.699020,230.850815 174.217422,237.965683 
	C183.524628,244.805161 185.903595,244.978302 193.418503,239.042969 
	C193.841675,238.708755 193.318817,237.176788 192.574493,235.872452 
M160.613052,251.737503 
	C150.277374,245.632721 149.212967,245.703674 140.796448,253.344910 
	C143.449951,254.888290 145.963959,256.412537 148.536026,257.831543 
	C152.075699,259.784393 159.671310,256.321259 160.613052,251.737503 
M195.997864,259.765961 
	C197.143890,259.015228 198.289917,258.264496 199.548477,257.440063 
	C189.263000,249.970627 187.009521,250.000687 178.067276,257.592133 
	C183.565903,260.668762 188.520493,266.548523 195.997864,259.765961 
M226.961899,268.845642 
	C230.984451,267.179718 235.007004,265.513824 239.699097,263.570618 
	C228.287628,255.610504 225.712616,255.673401 217.714523,263.494049 
	C220.629944,265.184937 223.461166,266.826965 226.961899,268.845642 
M172.921310,267.374084 
	C171.888748,268.073090 170.856186,268.772095 169.752411,269.519318 
	C179.008942,277.060852 182.553726,277.022095 190.874390,269.432343 
	C185.439590,266.105865 180.366577,260.646332 172.921310,267.374084 
M203.436005,259.436523 
	C199.762955,261.366241 196.089920,263.295959 192.104202,265.389923 
	C202.894196,273.133118 206.175079,273.046021 213.723984,265.175781 
	C210.505310,263.357452 207.332321,261.564941 203.436005,259.436523 
M247.702850,280.832336 
	C258.654358,287.240967 259.157867,287.215118 267.721863,279.804565 
	C258.355255,272.509399 253.685852,272.625000 247.702850,280.832336 
M158.860962,234.850952 
	C155.658371,236.703979 152.455795,238.556992 149.071838,240.514954 
	C159.471786,248.143280 162.530319,248.077332 170.738007,240.156830 
	C166.954468,238.250504 163.271378,236.394775 158.860962,234.850952 
M257.054047,319.585663 
	C264.217804,327.223969 269.004883,327.293121 277.645264,319.883209 
	C268.620239,312.676788 268.392578,312.656525 258.826324,318.260681 
	C258.397217,318.512085 257.985718,318.793579 257.054047,319.585663 
M275.389191,301.111694 
	C271.646698,303.064423 267.904175,305.017151 263.868347,307.122955 
	C275.351257,314.767578 275.988495,314.763123 286.008301,307.104004 
	C282.608643,305.137054 279.345947,303.249329 275.389191,301.111694 
M207.702866,244.598618 
	C198.243057,239.154373 195.984863,239.370712 188.578278,246.596664 
	C191.461548,248.286880 194.235535,250.039505 197.127808,251.568283 
	C199.413391,252.776367 208.619827,248.440598 209.348633,245.888824 
	C209.405136,245.690948 208.674255,245.268204 207.702866,244.598618 
M209.328949,250.548920 
	C207.220276,251.794525 205.111618,253.040131 202.886917,254.354279 
	C212.590363,261.971466 215.262146,261.957489 224.479187,254.327469 
	C221.978714,252.868011 219.419647,251.626434 217.151306,249.983490 
	C214.596680,248.133179 212.339966,248.237778 209.328949,250.548920 
M180.431747,245.997604 
	C173.854599,242.218201 170.029938,243.023361 164.105667,249.434525 
	C174.543213,256.512939 176.726440,256.452271 184.835266,248.705276 
	C183.553253,247.898972 182.312820,247.118805 180.431747,245.997604 
M150.738663,224.842148 
	C157.451508,230.084671 160.846130,222.888885 166.256439,221.381622 
	C156.466614,213.508667 151.893112,213.597366 144.967880,221.429092 
	C146.703217,222.449371 148.404587,223.449677 150.738663,224.842148 
M227.126007,290.130066 
	C220.758881,286.359680 218.060745,293.330994 212.838913,294.266693 
	C222.442200,302.119232 227.358124,302.035278 234.259201,294.306763 
	C232.083466,293.033234 229.935806,291.776154 227.126007,290.130066 
M281.958466,313.339996 
	C280.949432,314.046478 279.940399,314.752991 278.848877,315.517273 
	C288.698914,323.011932 292.196594,322.945526 299.920746,315.260376 
	C294.465485,311.898132 289.331055,306.666687 281.958466,313.339996 
M213.725891,290.563782 
	C215.838684,289.301239 217.951462,288.038727 220.177231,286.708679 
	C210.395950,279.094574 207.932007,279.105499 198.570908,286.740509 
	C201.078354,288.202850 203.651062,289.425018 205.898239,291.087250 
	C208.457321,292.980225 210.694412,292.852325 213.725891,290.563782 
M302.869202,310.800842 
	C305.836670,309.061615 308.804138,307.322388 311.863220,305.529449 
	C302.974152,297.853668 298.320404,297.891235 290.668610,305.653656 
	C293.895599,307.481659 297.048492,309.312653 300.257812,311.038788 
	C300.757263,311.307465 301.514130,311.097504 302.869202,310.800842 
M159.795990,258.185883 
	C158.274261,259.146027 156.752533,260.106171 155.133392,261.127777 
	C165.188446,268.695923 167.039795,268.686249 176.892487,260.805603 
	C171.285309,259.060120 167.283051,251.727142 159.795990,258.185883 
M141.000839,228.482239 
	C138.940903,229.711105 136.880966,230.939957 134.629761,232.282913 
	C145.106461,239.881104 148.234329,239.815140 156.005051,232.020309 
	C153.827408,230.733627 151.608185,229.606720 149.594910,228.187637 
	C146.883789,226.276672 144.307999,225.765930 141.000839,228.482239 
M219.584564,268.699036 
	C213.854416,267.110992 211.210388,272.130127 206.449615,273.869293 
	C217.917480,281.531464 220.326111,281.450500 227.995956,273.529266 
	C225.374130,272.012115 222.813873,270.530609 219.584564,268.699036 
z"/>
<path fill="#163D3D" opacity="1.000000" stroke="none" 
	d="
M159.088287,287.912354 
	C179.120972,299.476929 198.826889,310.876587 219.066116,322.584747 
	C206.981674,329.571320 195.006119,335.782227 183.835220,343.204254 
	C176.407791,348.139069 170.885651,348.189240 163.112411,343.351013 
	C141.959641,330.185181 120.084755,318.179535 97.894020,305.366455 
	C105.039635,301.217255 111.738831,297.315186 118.449883,293.433624 
	C125.788536,289.189087 133.209396,285.080139 140.441849,280.662354 
	C142.775238,279.237030 144.453934,279.232178 146.710846,280.698822 
	C150.608582,283.231750 154.732498,285.416565 159.088287,287.912354 
z"/>
<path fill="#184040" opacity="1.000000" stroke="none" 
	d="
M315.346741,338.350769 
	C313.821808,336.864960 312.765533,335.362030 311.326935,334.489777 
	C305.384613,330.887024 299.326447,327.475311 293.252411,323.959564 
	C293.660675,323.454102 293.740662,323.319550 293.852631,323.221558 
	C300.137817,317.720123 306.356445,317.004211 313.161591,322.681793 
	C316.307556,325.306458 320.210999,327.085022 323.926697,328.934509 
	C325.413666,329.674652 327.319824,329.572754 329.035156,329.854126 
	C329.216278,329.314667 329.397369,328.775208 329.578461,328.235748 
	C326.422272,326.328033 323.266083,324.420288 319.348907,322.052612 
	C323.002777,319.897461 326.029388,317.037384 329.445465,316.452606 
	C331.975464,316.019531 334.978271,318.634094 337.834991,319.721497 
	C339.661774,320.416901 341.606049,320.803619 343.497650,321.328705 
	C343.733337,320.727356 343.969025,320.126007 344.204712,319.524628 
	C342.897339,318.709015 341.613068,317.853333 340.279236,317.083557 
	C274.447113,279.090302 208.616562,241.094269 142.743256,203.172546 
	C140.988602,202.162445 138.764786,201.967346 136.759750,201.392181 
	C136.507401,202.047073 136.255051,202.701965 136.002686,203.356873 
	C141.061646,206.328415 146.120590,209.299957 151.754013,212.608948 
	C148.252060,214.657166 145.361053,216.601227 142.235138,218.032166 
	C141.210022,218.501419 139.433075,217.925476 138.244202,217.335373 
	C133.367935,214.914993 128.585861,212.304810 123.386223,209.517136 
	C123.003288,208.912491 123.003258,208.555176 123.003220,208.197845 
	C131.662094,203.144348 140.395096,198.211884 148.942932,192.977097 
	C152.306824,190.916992 154.048340,193.646652 156.520218,195.079300 
	C156.370270,195.692154 156.112305,195.898117 155.510574,196.006165 
	C153.309341,195.353607 151.443344,194.788254 149.577347,194.222916 
	C149.420929,194.689285 149.264526,195.155670 149.108109,195.622055 
	C149.925140,196.169647 150.713608,196.766647 151.563278,197.257797 
	C218.126251,235.734726 284.690430,274.209534 351.287018,312.628204 
	C352.628204,313.401978 354.351532,313.513214 356.079407,314.071014 
	C356.511902,314.385529 356.742493,314.584625 356.954041,314.805786 
	C343.182556,322.745087 329.411072,330.684387 315.346741,338.350769 
z"/>
<path fill="#183F3F" opacity="1.000000" stroke="none" 
	d="
M141.273666,271.785400 
	C149.419586,264.129608 156.998505,265.713348 166.067276,271.666382 
	C181.328949,281.684662 197.591675,290.177490 213.426544,299.323700 
	C214.838898,300.139465 216.201691,301.041107 218.181854,302.272461 
	C214.040817,304.693604 210.393814,306.825867 206.437927,309.111816 
	C184.589981,296.833130 163.050934,284.400787 141.273666,271.785400 
z"/>
<path fill="#184040" opacity="1.000000" stroke="none" 
	d="
M272.836731,347.773376 
	C273.429291,347.055756 274.355133,346.628021 275.114319,345.999146 
	C281.325897,340.853668 287.475983,339.924225 294.024384,345.615753 
	C295.245697,346.677307 297.586121,346.451233 299.410095,346.819366 
	C299.589691,346.277466 299.769287,345.735565 299.948883,345.193665 
	C290.455536,339.655823 280.962158,334.117950 270.754089,328.163177 
	C274.355133,326.055817 277.202484,324.069794 280.326996,322.730103 
	C281.459595,322.244476 283.430908,322.989624 284.718994,323.710388 
	C292.688843,328.169891 300.508942,332.900970 308.540314,337.243073 
	C310.121796,338.098022 312.408539,337.648560 314.728271,337.918030 
	C314.151489,338.954956 313.355469,340.110657 312.259064,340.756195 
	C304.708374,345.201721 297.056488,349.475983 289.525787,353.954376 
	C287.341187,355.253510 285.596191,355.738495 283.273224,354.113892 
	C280.032471,351.847534 276.500244,349.997986 272.836731,347.773376 
z"/>
<path fill="#2E504F" opacity="1.000000" stroke="none" 
	d="
M357.282532,314.728027 
	C356.742493,314.584625 356.511902,314.385529 356.196472,313.804993 
	C354.928711,312.284424 353.886200,310.892059 352.501648,310.090210 
	C308.635773,284.686401 264.720825,259.367371 220.849426,233.973068 
	C199.144943,221.409744 177.511429,208.723831 155.845810,196.093384 
	C156.112305,195.898117 156.370270,195.692154 156.792358,195.297974 
	C180.602051,208.691803 204.260101,222.226746 227.871536,235.842484 
	C270.651794,260.512054 313.404755,285.229034 356.166260,309.931061 
	C357.458466,310.677490 358.719574,311.477692 360.364838,312.477478 
	C359.312164,313.308044 358.461578,313.979187 357.282532,314.728027 
z"/>
<path fill="#1A4241" opacity="1.000000" stroke="none" 
	d="
M122.671219,208.269684 
	C123.003258,208.555176 123.003288,208.912491 123.001175,209.537811 
	C122.391312,210.330383 121.783585,210.854965 120.833244,211.675278 
	C127.941544,215.843353 134.720734,219.818451 142.165924,224.184082 
	C138.618500,226.256393 135.917038,228.147675 132.949265,229.415573 
	C131.745605,229.929810 129.748276,229.480011 128.478836,228.792084 
	C122.942505,225.791901 117.620064,222.390900 112.036942,219.487335 
	C110.575050,218.727066 108.455666,219.231033 106.274124,219.060913 
	C108.071831,217.329269 110.137115,215.539154 112.418694,214.089478 
	C115.641724,212.041595 119.024643,210.245346 122.671219,208.269684 
z"/>
<path fill="#194141" opacity="1.000000" stroke="none" 
	d="
M209.770187,311.753479 
	C217.766464,303.039581 223.220230,303.171051 235.376404,312.552734 
	C231.593201,314.776978 227.976105,316.903534 224.040253,319.243713 
	C219.196106,316.943512 214.670700,314.429688 209.770187,311.753479 
z"/>
<path fill="#194241" opacity="1.000000" stroke="none" 
	d="
M123.808311,261.704437 
	C124.139626,261.162445 124.727287,260.853851 125.301758,260.522400 
	C137.167419,253.676086 137.896469,253.745438 149.779526,263.200012 
	C146.128632,265.390137 142.643723,267.480652 138.894623,269.831482 
	C133.773117,267.370270 128.915817,264.648743 123.808311,261.704437 
z"/>
<path fill="#1A4241" opacity="1.000000" stroke="none" 
	d="
M105.674927,218.613495 
	C108.334579,220.786652 110.674629,222.717987 113.121887,224.502258 
	C114.672646,225.632874 116.383057,226.544525 118.695564,227.969513 
	C115.116966,230.023636 112.253181,231.987991 109.116478,233.299759 
	C107.967514,233.780228 106.099411,232.891830 104.684486,232.318863 
	C100.655190,230.687225 96.690300,228.896561 92.305923,227.067932 
	C96.408096,224.081406 100.904404,221.195435 105.674927,218.613495 
z"/>
<path fill="#1A4241" opacity="1.000000" stroke="none" 
	d="
M91.663742,226.634460 
	C92.567268,227.972382 92.937149,229.368683 93.842628,230.017578 
	C96.184036,231.695541 98.761772,233.043716 101.921036,234.926331 
	C97.770584,237.403534 94.300446,239.474686 90.530266,241.807983 
	C85.895370,239.768921 81.560532,237.467697 76.392242,234.724030 
	C81.949478,231.618713 86.661789,228.985519 91.663742,226.634460 
z"/>
<path fill="#194141" opacity="1.000000" stroke="none" 
	d="
M226.981323,321.428040 
	C227.718796,320.505646 228.630280,319.795441 229.617523,319.213867 
	C239.949158,313.127930 240.509277,313.189270 250.680145,321.517181 
	C246.931839,323.708313 243.290146,325.837128 239.331268,328.124481 
	C235.072891,326.088654 231.131714,323.894257 226.981323,321.428040 
z"/>
<path fill="#194141" opacity="1.000000" stroke="none" 
	d="
M257.812164,339.259705 
	C260.907898,336.924957 264.175171,334.698608 267.651794,332.870392 
	C268.685211,332.326965 270.511047,332.490784 271.620209,333.041992 
	C274.850891,334.647583 277.902710,336.613037 281.792267,338.885986 
	C277.684753,341.364349 274.102264,343.525970 270.241638,345.896301 
	C265.996887,343.910156 262.030334,341.715302 257.812164,339.259705 
z"/>
<path fill="#194141" opacity="1.000000" stroke="none" 
	d="
M93.223816,244.021683 
	C94.024010,243.195435 94.994232,242.555435 95.998039,241.973328 
	C106.327522,235.983261 106.512001,236.003403 116.935501,244.261993 
	C113.289566,246.447418 109.790192,248.544998 106.021828,250.888641 
	C101.638367,248.834747 97.523895,246.534790 93.223816,244.021683 
z"/>
<path fill="#194241" opacity="1.000000" stroke="none" 
	d="
M108.544601,252.616714 
	C109.092400,251.955566 109.960655,251.731750 110.556534,251.201721 
	C118.081230,244.508606 125.096458,246.117172 132.126694,253.139557 
	C128.695099,255.210190 125.121605,257.366455 121.310028,259.758575 
	C116.960793,257.633514 112.849640,255.272644 108.544601,252.616714 
z"/>
<path fill="#1A4242" opacity="1.000000" stroke="none" 
	d="
M242.285324,330.329712 
	C243.323853,329.254059 244.530930,328.392212 245.805511,327.645599 
	C255.009613,322.253937 257.051849,322.535461 265.832977,330.493164 
	C262.250854,332.620697 258.737579,334.707336 254.921875,337.020782 
	C250.574692,335.030670 246.529907,332.813751 242.285324,330.329712 
z"/>
<path fill="#1A4040" opacity="1.000000" stroke="none" 
	d="
M16.623428,267.894409 
	C16.757374,268.370880 16.522364,268.587067 16.071251,268.921631 
	C15.530184,268.891754 15.179025,268.715057 14.901387,268.245667 
	C15.410162,267.856171 15.845415,267.759399 16.623428,267.894409 
z"/>
<path fill="#1A4343" opacity="1.000000" stroke="none" 
	d="
M237.845306,275.154541 
	C235.702759,273.902344 233.879868,272.818207 231.949371,271.670044 
	C241.892517,264.025421 243.263199,264.022156 253.989120,271.808075 
	C248.473877,273.206268 245.020309,280.901978 237.845306,275.154541 
z"/>
<path fill="#1A4343" opacity="1.000000" stroke="none" 
	d="
M308.171204,315.916656 
	C306.930176,315.094116 306.009705,314.434204 305.028534,313.730774 
	C315.037842,306.224884 315.428894,306.221436 326.163696,313.396484 
	C319.076111,320.293579 316.499268,320.684753 308.171204,315.916656 
z"/>
<path fill="#1A4343" opacity="1.000000" stroke="none" 
	d="
M242.900223,312.345886 
	C248.224136,304.537048 252.955978,304.367340 263.384735,311.363647 
	C255.116119,318.824463 254.104706,318.885498 242.900223,312.345886 
z"/>
<path fill="#194343" opacity="1.000000" stroke="none" 
	d="
M143.216064,241.698944 
	C144.887863,242.715897 146.260559,243.543350 147.723114,244.424973 
	C137.594315,251.997375 136.021210,251.996933 126.062889,244.412201 
	C131.472626,241.600662 136.028961,235.264359 143.216064,241.698944 
z"/>
<path fill="#194242" opacity="1.000000" stroke="none" 
	d="
M251.239136,297.973389 
	C258.299561,291.780640 264.770538,292.386139 270.851410,298.800232 
	C264.571442,305.778748 257.079681,306.073334 250.573334,299.393219 
	C250.424835,299.240753 250.803055,298.575256 251.239136,297.973389 
z"/>
<path fill="#194242" opacity="1.000000" stroke="none" 
	d="
M240.018005,284.222351 
	C231.581497,289.131714 231.581497,289.131714 221.605362,282.693237 
	C228.640305,275.036224 233.124435,274.954834 242.711899,282.485168 
	C241.867477,283.037872 241.094604,283.543762 240.018005,284.222351 
z"/>
<path fill="#1A4343" opacity="1.000000" stroke="none" 
	d="
M231.522430,300.499756 
	C238.613281,293.969849 243.406036,299.803558 248.860443,302.827362 
	C240.167450,310.572479 238.395966,310.609955 227.517700,303.158722 
	C228.863586,302.267273 230.038620,301.488983 231.522430,300.499756 
z"/>
<path fill="#1A4343" opacity="1.000000" stroke="none" 
	d="
M289.024841,291.599915 
	C291.915802,293.297089 294.480347,294.776642 297.088165,296.281158 
	C289.574066,304.073914 285.887573,304.155151 275.594543,296.385864 
	C280.384277,295.000763 282.950806,289.600281 289.024841,291.599915 
z"/>
<path fill="#194343" opacity="1.000000" stroke="none" 
	d="
M235.970917,290.247894 
	C236.611389,289.734436 237.012497,289.433990 237.441528,289.180969 
	C247.260773,283.389923 247.261337,283.390869 256.838776,290.578125 
	C247.825958,297.979187 244.612000,297.964691 235.970917,290.247894 
z"/>
<path fill="#194242" opacity="1.000000" stroke="none" 
	d="
M272.675415,294.410889 
	C268.704681,292.698914 265.055115,290.840393 261.312683,288.934601 
	C269.013336,281.036896 273.142029,280.976440 282.843536,288.586395 
	C279.487183,290.521729 276.241852,292.393066 272.675415,294.410889 
z"/>
<path fill="#194343" opacity="1.000000" stroke="none" 
	d="
M169.976410,235.560486 
	C166.175949,233.649826 162.726105,231.720612 159.208176,229.753326 
	C167.528976,222.037201 171.666611,222.024811 180.741241,229.679611 
	C177.218475,231.662628 173.772751,233.602280 169.976410,235.560486 
z"/>
<path fill="#194242" opacity="1.000000" stroke="none" 
	d="
M192.193405,283.042664 
	C189.335083,281.400665 186.815628,279.925201 184.171112,278.376495 
	C193.257080,270.734558 195.952774,270.713989 205.780212,278.480713 
	C200.902313,279.722961 198.462997,285.592041 192.193405,283.042664 
z"/>
<path fill="#194343" opacity="1.000000" stroke="none" 
	d="
M122.129013,242.279785 
	C118.467178,240.321915 115.180267,238.476471 111.782692,236.568893 
	C120.376854,228.837723 123.067757,228.794174 133.342407,236.437424 
	C129.552872,238.519440 126.028404,240.455826 122.129013,242.279785 
z"/>
<path fill="#194343" opacity="1.000000" stroke="none" 
	d="
M192.905396,236.037369 
	C193.318817,237.176788 193.841675,238.708755 193.418503,239.042969 
	C185.903595,244.978302 183.524628,244.805161 174.217422,237.965683 
	C181.699020,230.850815 183.544205,230.640411 192.905396,236.037369 
z"/>
<path fill="#194242" opacity="1.000000" stroke="none" 
	d="
M160.919037,251.917450 
	C159.671310,256.321259 152.075699,259.784393 148.536026,257.831543 
	C145.963959,256.412537 143.449951,254.888290 140.796448,253.344910 
	C149.212967,245.703674 150.277374,245.632721 160.919037,251.917450 
z"/>
<path fill="#1A4343" opacity="1.000000" stroke="none" 
	d="
M195.675980,259.928040 
	C188.520493,266.548523 183.565903,260.668762 178.067276,257.592133 
	C187.009521,250.000687 189.263000,249.970627 199.548477,257.440063 
	C198.289917,258.264496 197.143890,259.015228 195.675980,259.928040 
z"/>
<path fill="#194242" opacity="1.000000" stroke="none" 
	d="
M226.627136,268.657318 
	C223.461166,266.826965 220.629944,265.184937 217.714523,263.494049 
	C225.712616,255.673401 228.287628,255.610504 239.699097,263.570618 
	C235.007004,265.513824 230.984451,267.179718 226.627136,268.657318 
z"/>
<path fill="#194242" opacity="1.000000" stroke="none" 
	d="
M173.254944,267.189087 
	C180.366577,260.646332 185.439590,266.105865 190.874390,269.432343 
	C182.553726,277.022095 179.008942,277.060852 169.752411,269.519318 
	C170.856186,268.772095 171.888748,268.073090 173.254944,267.189087 
z"/>
<path fill="#194343" opacity="1.000000" stroke="none" 
	d="
M203.797668,259.604492 
	C207.332321,261.564941 210.505310,263.357452 213.723984,265.175781 
	C206.175079,273.046021 202.894196,273.133118 192.104202,265.389923 
	C196.089920,263.295959 199.762955,261.366241 203.797668,259.604492 
z"/>
<path fill="#194242" opacity="1.000000" stroke="none" 
	d="
M247.447845,280.572510 
	C253.685852,272.625000 258.355255,272.509399 267.721863,279.804565 
	C259.157867,287.215118 258.654358,287.240967 247.447845,280.572510 
z"/>
<path fill="#194242" opacity="1.000000" stroke="none" 
	d="
M159.224609,234.695007 
	C163.271378,236.394775 166.954468,238.250504 170.738007,240.156830 
	C162.530319,248.077332 159.471786,248.143280 149.071838,240.514954 
	C152.455795,238.556992 155.658371,236.703979 159.224609,234.695007 
z"/>
<path fill="#194242" opacity="1.000000" stroke="none" 
	d="
M257.309998,319.323364 
	C257.985718,318.793579 258.397217,318.512085 258.826324,318.260681 
	C268.392578,312.656525 268.620239,312.676788 277.645264,319.883209 
	C269.004883,327.293121 264.217804,327.223969 257.309998,319.323364 
z"/>
<path fill="#194343" opacity="1.000000" stroke="none" 
	d="
M275.736206,301.236664 
	C279.345947,303.249329 282.608643,305.137054 286.008301,307.104004 
	C275.988495,314.763123 275.351257,314.767578 263.868347,307.122955 
	C267.904175,305.017151 271.646698,303.064423 275.736206,301.236664 
z"/>
<path fill="#1A4343" opacity="1.000000" stroke="none" 
	d="
M208.006104,244.774292 
	C208.674255,245.268204 209.405136,245.690948 209.348633,245.888824 
	C208.619827,248.440598 199.413391,252.776367 197.127808,251.568283 
	C194.235535,250.039505 191.461548,248.286880 188.578278,246.596664 
	C195.984863,239.370712 198.243057,239.154373 208.006104,244.774292 
z"/>
<path fill="#194242" opacity="1.000000" stroke="none" 
	d="
M209.661865,250.345001 
	C212.339966,248.237778 214.596680,248.133179 217.151306,249.983490 
	C219.419647,251.626434 221.978714,252.868011 224.479187,254.327469 
	C215.262146,261.957489 212.590363,261.971466 202.886917,254.354279 
	C205.111618,253.040131 207.220276,251.794525 209.661865,250.345001 
z"/>
<path fill="#194242" opacity="1.000000" stroke="none" 
	d="
M180.752075,246.168121 
	C182.312820,247.118805 183.553253,247.898972 184.835266,248.705276 
	C176.726440,256.452271 174.543213,256.512939 164.105667,249.434525 
	C170.029938,243.023361 173.854599,242.218201 180.752075,246.168121 
z"/>
<path fill="#194242" opacity="1.000000" stroke="none" 
	d="
M150.422302,224.646072 
	C148.404587,223.449677 146.703217,222.449371 144.967880,221.429092 
	C151.893112,213.597366 156.466614,213.508667 166.256439,221.381622 
	C160.846130,222.888885 157.451508,230.084671 150.422302,224.646072 
z"/>
<path fill="#194242" opacity="1.000000" stroke="none" 
	d="
M227.457092,290.324585 
	C229.935806,291.776154 232.083466,293.033234 234.259201,294.306763 
	C227.358124,302.035278 222.442200,302.119232 212.838913,294.266693 
	C218.060745,293.330994 220.758881,286.359680 227.457092,290.324585 
z"/>
<path fill="#194242" opacity="1.000000" stroke="none" 
	d="
M282.289795,313.163635 
	C289.331055,306.666687 294.465485,311.898132 299.920746,315.260376 
	C292.196594,322.945526 288.698914,323.011932 278.848877,315.517273 
	C279.940399,314.752991 280.949432,314.046478 282.289795,313.163635 
z"/>
<path fill="#194242" opacity="1.000000" stroke="none" 
	d="
M213.381348,290.753571 
	C210.694412,292.852325 208.457321,292.980225 205.898239,291.087250 
	C203.651062,289.425018 201.078354,288.202850 198.570908,286.740509 
	C207.932007,279.105499 210.395950,279.094574 220.177231,286.708679 
	C217.951462,288.038727 215.838684,289.301239 213.381348,290.753571 
z"/>
<path fill="#194242" opacity="1.000000" stroke="none" 
	d="
M302.510590,310.954865 
	C301.514130,311.097504 300.757263,311.307465 300.257812,311.038788 
	C297.048492,309.312653 293.895599,307.481659 290.668610,305.653656 
	C298.320404,297.891235 302.974152,297.853668 311.863220,305.529449 
	C308.804138,307.322388 305.836670,309.061615 302.510590,310.954865 
z"/>
<path fill="#194242" opacity="1.000000" stroke="none" 
	d="
M160.120758,258.025391 
	C167.283051,251.727142 171.285309,259.060120 176.892487,260.805603 
	C167.039795,268.686249 165.188446,268.695923 155.133392,261.127777 
	C156.752533,260.106171 158.274261,259.146027 160.120758,258.025391 
z"/>
<path fill="#1A4343" opacity="1.000000" stroke="none" 
	d="
M141.312653,228.293732 
	C144.307999,225.765930 146.883789,226.276672 149.594910,228.187637 
	C151.608185,229.606720 153.827408,230.733627 156.005051,232.020309 
	C148.234329,239.815140 145.106461,239.881104 134.629761,232.282913 
	C136.880966,230.939957 138.940903,229.711105 141.312653,228.293732 
z"/>
<path fill="#194242" opacity="1.000000" stroke="none" 
	d="
M219.919098,268.874084 
	C222.813873,270.530609 225.374130,272.012115 227.995956,273.529266 
	C220.326111,281.450500 217.917480,281.531464 206.449615,273.869293 
	C211.210388,272.130127 213.854416,267.110992 219.919098,268.874084 
z"/>
<path fill="#8AD0D1" opacity="1.000000" stroke="none" 
	d="
M155.510574,196.006165 
	C177.511429,208.723831 199.144943,221.409744 220.849426,233.973068 
	C264.720825,259.367371 308.635773,284.686401 352.501648,310.090210 
	C353.886200,310.892059 354.928711,312.284424 356.013641,313.667511 
	C354.351532,313.513214 352.628204,313.401978 351.287018,312.628204 
	C284.690430,274.209534 218.126251,235.734726 151.563278,197.257797 
	C150.713608,196.766647 149.925140,196.169647 149.108109,195.622055 
	C149.264526,195.155670 149.420929,194.689285 149.577347,194.222916 
	C151.443344,194.788254 153.309341,195.353607 155.510574,196.006165 
z"/>
</svg>